<svg width="150" height="77" xmlns="http://www.w3.org/2000/svg"><g fill="none" fill-rule="evenodd"><path fill="#FF5100" d="M50.482 14.22l-7.638 2.078L50.324 0 1.825 17.838l2.651 21.368L0 43.52 13.351 76.94l28.378-10.449 9.864-23.143-4.235-4.08z"/><path d="M92.281 11.134a.292.292 0 00-.29-.29h-3.61c-.105 0-.236.132-.236.29v9.545c0 .131.131.236.236.236h3.61c.158 0 .29-.105.29-.236v-9.545zm2.503-4.129c1.239 0 2.082.842 2.082 2.078v13.594c0 1.236-.843 2.077-2.082 2.077h-9.143c-1.238 0-2.081-.841-2.081-2.077V9.083c0-1.236.843-2.078 2.081-2.078h9.143zM109.656 16.498V11.16c0-.315-.263-.526-.632-.526h-2.846a.534.534 0 00-.553.526v5.338h4.031zm4.585 8.256h-4.585v-4.417h-4.031v4.417h-4.585V9.083c0-1.236.843-2.077 2.081-2.077h9.038c1.239 0 2.082.84 2.082 2.077v15.671zM127.03 11.08c0-.13-.131-.262-.237-.262H123v4.733h3.794c.106 0 .237-.131.237-.237v-4.233zm2.556-4.075a2 2 0 012.002 1.998v8.126c0 1.077-.921 1.999-2.002 1.999h-.132l2.187 5.626h-4.479l-2.213-5.626h-1.95v5.626h-4.584V7.005h11.17zM144.51 12.106c0-.762-.527-1.288-1.29-1.288h-2.74v10.097h2.74c.763 0 1.29-.526 1.29-1.288v-7.52zm.948-5.1c1.95 0 3.61 1.603 3.61 3.602v10.518a3.634 3.634 0 01-3.61 3.628h-9.564V7.005h9.564zM92.176 39.053v-5.338c0-.315-.264-.526-.632-.526h-2.846a.534.534 0 00-.553.526v5.338h4.03zm4.584 8.257h-4.584v-4.418h-4.031v4.418H83.56V31.638c0-1.236.843-2.077 2.081-2.077h9.038c1.238 0 2.081.841 2.081 2.077V47.31zM105.15 37.265V47.31h-4.216V29.561h4.638l3.583 8.283 3.294-8.283h4.848V47.31h-4.32V37.081l-3.005 7.047h-1.792zM121.471 29.56h11.62v3.814h-7.062v3.103h6.113v3.786h-6.113v3.208h7.061v3.839h-11.619zM83.56 52.188h11.62v3.813h-7.062v3.103h6.113v3.787h-6.113v3.207h7.061v3.839H83.56zM99.037 52.188h11.62v3.813h-7.061v3.103h6.112v3.787h-6.112v3.207h7.06v3.839H99.038zM124.027 69.937l-3.478-6.784-1.45 2.34v4.444h-4.584V52.188h4.585v7.39l4.61-7.39h5.112l-5.138 7.705 5.349 10.044zM75.204 17.759c0-.132-.079-.29-.263-.29h-4.11v3.918h4.11c.184 0 .263-.13.263-.263V17.76zm0-6.942c0-.132-.079-.29-.263-.29h-4.11v3.682h4.11c.184 0 .263-.132.263-.29v-3.102zm-8.932 13.936V7.004h10.961c1.45 0 2.371.92 2.371 2.235v3.944c0 1.21-.79 2.367-2.424 2.761 1.634.395 2.556 1.5 2.556 2.682v3.866c0 1.393-.922 2.261-2.371 2.261H66.272zM74.367 59.04h4.979v8.861c0 1.157-.896 2.026-2.029 2.026h-8.99c-1.133 0-2.055-.869-2.055-2.026V54.176c0-1.078.922-1.998 2.055-1.998h11.019v3.812h-8.252c-.132 0-.264.131-.264.29v9.518c0 .158.132.263.264.263h3.773c.184 0 .29-.105.29-.263v-2.997h-2.398l1.608-3.76zM74.367 36.424h4.979v8.86c0 1.158-.896 2.026-2.029 2.026h-8.99c-1.133 0-2.055-.868-2.055-2.025V31.559c0-1.078.922-1.998 2.055-1.998h11.019v3.812h-8.252c-.132 0-.264.132-.264.29v9.518c0 .158.132.263.264.263h3.773c.184 0 .29-.105.29-.263v-2.997h-2.398l1.608-3.76z" fill="#FFF"/></g></svg>